# xmcd CD database file
#
# Track frame offsets:
#	150
#	30798
#	83642
#	89772
#	125274
#	158944
#	162684
#	202699
#	233259
#	259678
#
# Disc length: 3536 seconds
#
# Revision: 0
# Processed by: cddbd v1.5.2PL0 Copyright (c) Steve Scherf et al.
# Submitted via: CDex 1.51
#
DISCID=6c0dce0a
DTITLE=Jarry Singla - Daji Tulaji
DYEAR=2008
DGENRE=Jazz
TTITLE0=Mision Dolores II
TTITLE1=Fitozou
TTITLE2=Interlude I
TTITLE3=Rumba Digital
TTITLE4=Daji Tulaji
TTITLE5=Interlude II
TTITLE6=Otto corre
TTITLE7=Mision Dolores I
TTITLE8=KIB
TTITLE9=Interlude III
EXTD=YEAR: 2008
EXTT0=
EXTT1=
EXTT2=
EXTT3=
EXTT4=
EXTT5=
EXTT6=
EXTT7=
EXTT8=
EXTT9=
PLAYORDER=
